<svg width="16" height="16" viewBox="0 0 16 16" fill="none" xmlns="http://www.w3.org/2000/svg">
<path d="M7.775 7.75C6.7 7.75 5.78542 7.37292 5.03125 6.61875C4.27708 5.86458 3.9 4.95 3.9 3.875C3.9 2.8 4.27708 1.88542 5.03125 1.13125C5.78542 0.377083 6.7 0 7.775 0C8.85 0 9.76458 0.377083 10.5188 1.13125C11.2729 1.88542 11.65 2.8 11.65 3.875C11.65 4.95 11.2729 5.86458 10.5188 6.61875C9.76458 7.37292 8.85 7.75 7.775 7.75ZM0 13.525V12.7493C0 12.1997 0.139583 11.6979 0.41875 11.2438C0.697917 10.7896 1.07517 10.4416 1.5505 10.1997C2.56683 9.69992 3.59375 9.32292 4.63125 9.06875C5.66875 8.81458 6.71667 8.6875 7.775 8.6875C8.83333 8.6875 9.88125 8.81458 10.9187 9.06875C11.9563 9.32292 12.9832 9.69992 13.9995 10.1997C14.4748 10.4416 14.8521 10.7896 15.1313 11.2438C15.4104 11.6979 15.55 12.1997 15.55 12.7493V13.525C15.55 14.0407 15.3664 14.4821 14.9992 14.8492C14.6321 15.2164 14.1907 15.4 13.675 15.4H1.875C1.35933 15.4 0.917917 15.2164 0.55075 14.8492C0.183583 14.4821 0 14.0407 0 13.525Z" fill="#8B1E3F"/>
</svg>
