<svg width="24" height="24" viewBox="0 0 24 24" fill="none" xmlns="http://www.w3.org/2000/svg">
<path d="M11.996 23.1998C10.4487 23.1998 8.99488 22.9051 7.63455 22.3156C6.27422 21.7261 5.09088 20.9261 4.08455 19.9156C3.07822 18.9051 2.27922 17.7193 1.68755 16.3583C1.09588 14.9975 0.800049 13.5433 0.800049 11.9958C0.800049 10.4485 1.0948 8.99464 1.6843 7.6343C2.2738 6.27397 3.0738 5.09064 4.0843 4.0843C5.0948 3.07797 6.28055 2.27897 7.64155 1.6873C9.00238 1.09564 10.4565 0.799805 12.004 0.799805C13.5514 0.799805 15.0052 1.09455 16.3655 1.68405C17.7259 2.27355 18.9092 3.07355 19.9155 4.08405C20.9219 5.09455 21.7209 6.2803 22.3125 7.6413C22.9042 9.00214 23.2 10.4563 23.2 12.0038C23.2 13.5511 22.9053 15.005 22.3158 16.3653C21.7263 17.7256 20.9263 18.909 19.9158 19.9153C18.9053 20.9216 17.7195 21.7206 16.3585 22.3123C14.9977 22.904 13.5435 23.1998 11.996 23.1998ZM10.95 20.4998V18.3998C10.3667 18.3998 9.86255 18.1893 9.43755 17.7683C9.01255 17.3473 8.80005 16.8411 8.80005 16.2498V15.1998L3.65005 10.0498C3.60005 10.3748 3.55422 10.6998 3.51255 11.0248C3.47088 11.3498 3.45005 11.6748 3.45005 11.9998C3.45005 14.1831 4.16255 16.079 5.58755 17.6873C7.01255 19.2956 8.80005 20.2331 10.95 20.4998ZM18.3 17.7498C19.05 16.9665 19.6125 16.0771 19.9875 15.0818C20.3625 14.0865 20.55 13.0508 20.55 11.9748C20.55 10.2081 20.0667 8.60397 19.1 7.1623C18.1334 5.72064 16.8334 4.68314 15.2 4.0498V4.4743C15.2 5.05797 14.9895 5.5623 14.5685 5.9873C14.1474 6.4123 13.6412 6.6248 13.05 6.6248H10.95V8.7748C10.95 9.05814 10.8459 9.30397 10.6375 9.5123C10.4292 9.72064 10.1834 9.8248 9.90005 9.8248H7.70005V11.9748H14.15C14.4334 11.9748 14.6792 12.079 14.8875 12.2873C15.0959 12.4956 15.2 12.7415 15.2 13.0248V16.2998H16.291C16.7637 16.2998 17.182 16.4336 17.546 16.7011C17.91 16.9687 18.1614 17.3183 18.3 17.7498Z" fill="#8B1E3F"/>
</svg>
