<svg width="29" height="26" viewBox="0 0 29 26" fill="none" xmlns="http://www.w3.org/2000/svg">
<path d="M14.1667 25.5201C13.8361 25.5201 13.4997 25.461 13.1573 25.343C12.8149 25.2249 12.5139 25.036 12.2542 24.7763L9.81042 22.5451C7.30764 20.2548 5.04688 17.9822 3.02813 15.7273C1.00938 13.4725 0 10.9874 0 8.27214C0 6.05269 0.74375 4.19922 2.23125 2.71172C3.71875 1.22422 5.57222 0.480469 7.79167 0.480469C9.04306 0.480469 10.2236 0.746094 11.3333 1.27734C12.4431 1.80859 13.3875 2.53464 14.1667 3.45547C14.9458 2.53464 15.8903 1.80859 17 1.27734C18.1097 0.746094 19.2903 0.480469 20.5417 0.480469C22.7611 0.480469 24.6146 1.22422 26.1021 2.71172C27.5896 4.19922 28.3333 6.05269 28.3333 8.27214C28.3333 10.9874 27.3299 13.4784 25.3229 15.7451C23.316 18.0117 21.0375 20.2902 18.4875 22.5805L16.0792 24.7763C15.8194 25.036 15.5184 25.2249 15.176 25.343C14.8337 25.461 14.4972 25.5201 14.1667 25.5201ZM12.8208 6.2888C12.1361 5.32075 11.4042 4.5829 10.625 4.07526C9.84583 3.56762 8.90139 3.3138 7.79167 3.3138C6.375 3.3138 5.19444 3.78602 4.25 4.73047C3.30556 5.67491 2.83333 6.85547 2.83333 8.27214C2.83333 9.49991 3.27014 10.8044 4.14375 12.1857C5.01736 13.5669 6.06215 14.9069 7.27812 16.2055C8.4941 17.5041 9.74549 18.7201 11.0323 19.8534C12.3191 20.9867 13.3639 21.9194 14.1667 22.6513C14.9694 21.9194 16.0142 20.9867 17.301 19.8534C18.5878 18.7201 19.8392 17.5041 21.0552 16.2055C22.2712 14.9069 23.316 13.5669 24.1896 12.1857C25.0632 10.8044 25.5 9.49991 25.5 8.27214C25.5 6.85547 25.0278 5.67491 24.0833 4.73047C23.1389 3.78602 21.9583 3.3138 20.5417 3.3138C19.4319 3.3138 18.4875 3.56762 17.7083 4.07526C16.9292 4.5829 16.1972 5.32075 15.5125 6.2888C15.3472 6.52491 15.1465 6.702 14.9104 6.82005C14.6743 6.93811 14.4264 6.99714 14.1667 6.99714C13.9069 6.99714 13.659 6.93811 13.4229 6.82005C13.1868 6.702 12.9861 6.52491 12.8208 6.2888Z" fill="#8B1E3F"/>
</svg>
