<svg width="33" height="25" viewBox="0 0 33 25" fill="none" xmlns="http://www.w3.org/2000/svg">
<path d="M3 25C2.175 25 1.46875 24.7552 0.88125 24.2656C0.29375 23.776 0 23.1875 0 22.5V7.5C0 6.8125 0.29375 6.22396 0.88125 5.73438C1.46875 5.24479 2.175 5 3 5H7.725L9.6 3.3125C9.875 3.0625 10.2063 2.86458 10.5938 2.71875C10.9813 2.57292 11.3875 2.5 11.8125 2.5H18C18.425 2.5 18.7812 2.61979 19.0688 2.85938C19.3563 3.09896 19.5 3.39583 19.5 3.75C19.5 4.10417 19.3563 4.40104 19.0688 4.64062C18.7812 4.88021 18.425 5 18 5H11.8125L9.075 7.5H3V22.5H27V12.5C27 12.1458 27.1438 11.849 27.4313 11.6094C27.7188 11.3698 28.075 11.25 28.5 11.25C28.925 11.25 29.2813 11.3698 29.5688 11.6094C29.8563 11.849 30 12.1458 30 12.5V22.5C30 23.1875 29.7063 23.776 29.1188 24.2656C28.5313 24.7552 27.825 25 27 25H3ZM27 5H25.5C25.075 5 24.7188 4.88021 24.4313 4.64062C24.1438 4.40104 24 4.10417 24 3.75C24 3.39583 24.1438 3.09896 24.4313 2.85938C24.7188 2.61979 25.075 2.5 25.5 2.5H27V1.25C27 0.895833 27.1438 0.598958 27.4313 0.359375C27.7188 0.119792 28.075 0 28.5 0C28.925 0 29.2813 0.119792 29.5688 0.359375C29.8563 0.598958 30 0.895833 30 1.25V2.5H31.5C31.925 2.5 32.2812 2.61979 32.5688 2.85938C32.8563 3.09896 33 3.39583 33 3.75C33 4.10417 32.8563 4.40104 32.5688 4.64062C32.2812 4.88021 31.925 5 31.5 5H30V6.25C30 6.60417 29.8563 6.90104 29.5688 7.14062C29.2813 7.38021 28.925 7.5 28.5 7.5C28.075 7.5 27.7188 7.38021 27.4313 7.14062C27.1438 6.90104 27 6.60417 27 6.25V5ZM15 20.625C16.875 20.625 18.4688 20.0781 19.7812 18.9844C21.0938 17.8906 21.75 16.5625 21.75 15C21.75 13.4375 21.0938 12.1094 19.7812 11.0156C18.4688 9.92188 16.875 9.375 15 9.375C13.125 9.375 11.5312 9.92188 10.2188 11.0156C8.90625 12.1094 8.25 13.4375 8.25 15C8.25 16.5625 8.90625 17.8906 10.2188 18.9844C11.5312 20.0781 13.125 20.625 15 20.625ZM15 18.125C13.95 18.125 13.0625 17.8229 12.3375 17.2188C11.6125 16.6146 11.25 15.875 11.25 15C11.25 14.125 11.6125 13.3854 12.3375 12.7812C13.0625 12.1771 13.95 11.875 15 11.875C16.05 11.875 16.9375 12.1771 17.6625 12.7812C18.3875 13.3854 18.75 14.125 18.75 15C18.75 15.875 18.3875 16.6146 17.6625 17.2188C16.9375 17.8229 16.05 18.125 15 18.125Z" fill="#8B1E3F"/>
</svg>
