<svg width="27" height="30" viewBox="0 0 27 30" fill="none" xmlns="http://www.w3.org/2000/svg">
<path d="M14.1667 27.7502V25.4127C14.1667 25.2238 14.2021 25.0408 14.2729 24.8637C14.3438 24.6866 14.45 24.5272 14.5917 24.3856L21.9937 17.0189C22.2062 16.8064 22.4424 16.6529 22.7021 16.5585C22.9618 16.4641 23.2215 16.4168 23.4813 16.4168C23.7646 16.4168 24.0361 16.47 24.2958 16.5762C24.5556 16.6825 24.7917 16.8418 25.0042 17.0543L26.3146 18.3647C26.5035 18.5772 26.651 18.8134 26.7573 19.0731C26.8635 19.3328 26.9167 19.5925 26.9167 19.8522C26.9167 20.112 26.8694 20.3776 26.775 20.6491C26.6806 20.9206 26.5271 21.1627 26.3146 21.3752L18.9479 28.7418C18.8062 28.8835 18.6469 28.9897 18.4698 29.0606C18.2927 29.1314 18.1097 29.1668 17.9208 29.1668H15.5833C15.1819 29.1668 14.8455 29.0311 14.574 28.7595C14.3024 28.488 14.1667 28.1516 14.1667 27.7502ZM16.2917 27.0418H17.6375L21.9229 22.721L20.6125 21.4106L16.2917 25.696V27.0418ZM2.83333 29.1668C2.05417 29.1668 1.38715 28.8894 0.832292 28.3345C0.277431 27.7797 0 27.1127 0 26.3335V3.66683C0 2.88766 0.277431 2.22065 0.832292 1.66579C1.38715 1.11093 2.05417 0.833496 2.83333 0.833496H12.9979C13.3757 0.833496 13.7358 0.904329 14.0781 1.046C14.4205 1.18766 14.7215 1.38836 14.9812 1.64808L21.8521 8.51891C22.1118 8.77864 22.3125 9.07968 22.4542 9.42204C22.5958 9.7644 22.6667 10.1245 22.6667 10.5022V12.521C22.6667 12.9224 22.5309 13.2588 22.2594 13.5304C21.9878 13.8019 21.6514 13.9377 21.25 13.9377C20.8486 13.9377 20.5122 13.8019 20.2406 13.5304C19.9691 13.2588 19.8333 12.9224 19.8333 12.521V10.7502H14.1667C13.7653 10.7502 13.4288 10.6144 13.1573 10.3429C12.8858 10.0713 12.75 9.73489 12.75 9.3335V3.66683H2.83333V26.3335H9.91667C10.3181 26.3335 10.6545 26.4693 10.926 26.7408C11.1976 27.0123 11.3333 27.3488 11.3333 27.7502C11.3333 28.1516 11.1976 28.488 10.926 28.7595C10.6545 29.0311 10.3181 29.1668 9.91667 29.1668H2.83333ZM21.2854 22.0481L20.6125 21.4106L21.9229 22.721L21.2854 22.0481Z" fill="#8B1E3F"/>
</svg>
