<svg width="16" height="20" viewBox="0 0 16 20" fill="none" xmlns="http://www.w3.org/2000/svg">
<path d="M1.09998 16.8127C0.841642 16.8127 0.620809 16.721 0.437476 16.5377C0.254142 16.3544 0.162476 16.1335 0.162476 15.8752C0.162476 15.6169 0.254142 15.396 0.437476 15.2127C0.620809 15.0294 0.841642 14.9377 1.09998 14.9377H2.03748V8.1627C2.03748 6.77936 2.45623 5.5502 3.29373 4.4752C4.13123 3.4002 5.21664 2.69186 6.54998 2.3502V1.7002C6.54998 1.3002 6.69164 0.960612 6.97498 0.681445C7.25831 0.402279 7.59998 0.262695 7.99998 0.262695C8.39998 0.262695 8.74164 0.402279 9.02498 0.681445C9.30831 0.960612 9.44998 1.3002 9.44998 1.7002V2.3502C10.7833 2.69186 11.8687 3.4002 12.7062 4.4752C13.5437 5.5502 13.9625 6.77936 13.9625 8.1627V14.9377H14.9C15.1583 14.9377 15.3791 15.0294 15.5625 15.2127C15.7458 15.396 15.8375 15.6169 15.8375 15.8752C15.8375 16.1335 15.7458 16.3544 15.5625 16.5377C15.3791 16.721 15.1583 16.8127 14.9 16.8127H1.09998ZM7.99998 19.7002C7.45831 19.7002 6.99789 19.5106 6.61873 19.1314C6.23956 18.7523 6.04998 18.2919 6.04998 17.7502H9.94998C9.94998 18.2919 9.76039 18.7523 9.38123 19.1314C9.00206 19.5106 8.54164 19.7002 7.99998 19.7002Z" fill="#8B1E3F"/>
</svg>
