<svg width="20" height="18" viewBox="0 0 20 18" fill="none" xmlns="http://www.w3.org/2000/svg">
<path d="M2.62502 18C2.42502 18 2.22918 17.9583 2.03752 17.875C1.84585 17.7917 1.68335 17.6833 1.55002 17.55L0.850016 16.85C0.68335 16.6833 0.641683 16.5 0.725016 16.3C0.80835 16.1 0.966683 16 1.20002 16H18.8C19.0333 16 19.1917 16.1 19.275 16.3C19.3584 16.5 19.3167 16.6833 19.15 16.85L18.45 17.55C18.3167 17.6833 18.1542 17.7917 17.9625 17.875C17.7709 17.9583 17.575 18 17.375 18H2.62502ZM1.00002 15C1.10002 14.7 1.23335 14.4167 1.40002 14.15C1.56668 13.8833 1.76668 13.6333 2.00002 13.4V6H1.75002C1.53335 6 1.35418 5.92917 1.21252 5.7875C1.07085 5.64583 1.00002 5.46667 1.00002 5.25C1.00002 5.03333 1.07085 4.85417 1.21252 4.7125C1.35418 4.57083 1.53335 4.5 1.75002 4.5H2.00002V3.75H1.75002C1.53335 3.75 1.35418 3.67917 1.21252 3.5375C1.07085 3.39583 1.00002 3.21667 1.00002 3C1.00002 2.78333 1.07085 2.60417 1.21252 2.4625C1.35418 2.32083 1.53335 2.25 1.75002 2.25H2.00002V1.5H1.75002C1.53335 1.5 1.35418 1.42917 1.21252 1.2875C1.07085 1.14583 1.00002 0.966667 1.00002 0.75C1.00002 0.533333 1.07085 0.354167 1.21252 0.2125C1.35418 0.0708333 1.53335 0 1.75002 0H8.00002C8.55002 0 9.02085 0.195833 9.41252 0.5875C9.80418 0.979167 10 1.45 10 2V2.25H18.25C18.4667 2.25 18.6459 2.32083 18.7875 2.4625C18.9292 2.60417 19 2.78333 19 3C19 3.21667 18.9292 3.39583 18.7875 3.5375C18.6459 3.67917 18.4667 3.75 18.25 3.75H10V4C10 4.55 9.80418 5.02083 9.41252 5.4125C9.02085 5.80417 8.55002 6 8.00002 6H6.00002V12.1C6.23335 12.1333 6.46668 12.1833 6.70002 12.25C6.93335 12.3167 7.15002 12.4167 7.35002 12.55C7.78335 11.4667 8.47502 10.6042 9.42502 9.9625C10.375 9.32083 11.425 9 12.575 9C14.075 9 15.3542 9.5125 16.4125 10.5375C17.4708 11.5625 18 12.8167 18 14.3V15H1.00002ZM9.35002 13H15.65C15.3667 12.4 14.95 11.9167 14.4 11.55C13.85 11.1833 13.2417 11 12.575 11C11.875 11 11.2333 11.175 10.65 11.525C10.0667 11.875 9.63335 12.3667 9.35002 13ZM6.00002 2.25H8.00002V1.5H6.00002V2.25ZM6.00002 4.5H8.00002V3.75H6.00002V4.5ZM3.50002 2.25H4.50002V1.5H3.50002V2.25ZM3.50002 4.5H4.50002V3.75H3.50002V4.5ZM3.50002 12.35C3.66668 12.2667 3.82918 12.2042 3.98752 12.1625C4.14585 12.1208 4.31668 12.0833 4.50002 12.05V6H3.50002V12.35Z" fill="#E3E3E3"/>
</svg>
