<svg width="16" height="19" viewBox="0 0 16 19" fill="none" xmlns="http://www.w3.org/2000/svg">
<path d="M8 18.5859C5.76667 18.5859 3.875 17.8109 2.325 16.2609C0.775 14.7109 0 12.8193 0 10.5859C0 8.70261 0.558333 6.89428 1.675 5.16094C2.79167 3.42761 4.325 1.91094 6.275 0.610943C6.64167 0.360943 7.02083 0.348443 7.4125 0.573443C7.80417 0.798443 8 1.13594 8 1.58594V2.88594C8 3.45261 8.19583 3.92761 8.5875 4.31094C8.97917 4.69428 9.45833 4.88594 10.025 4.88594C10.3083 4.88594 10.5792 4.82344 10.8375 4.69844C11.0958 4.57344 11.325 4.39428 11.525 4.16094C11.6583 3.99428 11.8292 3.89011 12.0375 3.84844C12.2458 3.80678 12.4417 3.85261 12.625 3.98594C13.675 4.73594 14.5 5.69428 15.1 6.86094C15.7 8.02761 16 9.26928 16 10.5859C16 12.8193 15.225 14.7109 13.675 16.2609C12.125 17.8109 10.2333 18.5859 8 18.5859ZM2 10.5859C2 11.4526 2.175 12.2734 2.525 13.0484C2.875 13.8234 3.375 14.5026 4.025 15.0859C4.00833 15.0026 4 14.9276 4 14.8609V14.6359C4 14.1026 4.1 13.6026 4.3 13.1359C4.5 12.6693 4.79167 12.2443 5.175 11.8609L8 9.08594L10.825 11.8609C11.2083 12.2443 11.5 12.6693 11.7 13.1359C11.9 13.6026 12 14.1026 12 14.6359V14.8609C12 14.9276 11.9917 15.0026 11.975 15.0859C12.625 14.5026 13.125 13.8234 13.475 13.0484C13.825 12.2734 14 11.4526 14 10.5859C14 9.75261 13.8458 8.96511 13.5375 8.22344C13.2292 7.48178 12.7833 6.81928 12.2 6.23594C11.8667 6.45261 11.5167 6.61511 11.15 6.72344C10.7833 6.83178 10.4083 6.88594 10.025 6.88594C8.99167 6.88594 8.09583 6.54428 7.3375 5.86094C6.57917 5.17761 6.14167 4.33594 6.025 3.33594C4.725 4.43594 3.72917 5.60678 3.0375 6.84844C2.34583 8.09011 2 9.33594 2 10.5859ZM8 11.8859L6.575 13.2859C6.39167 13.4693 6.25 13.6776 6.15 13.9109C6.05 14.1443 6 14.3859 6 14.6359C6 15.1693 6.19583 15.6276 6.5875 16.0109C6.97917 16.3943 7.45 16.5859 8 16.5859C8.55 16.5859 9.02083 16.3943 9.4125 16.0109C9.80417 15.6276 10 15.1693 10 14.6359C10 14.3693 9.95 14.1234 9.85 13.8984C9.75 13.6734 9.60833 13.4693 9.425 13.2859L8 11.8859Z" fill="#FF0505"/>
</svg>
