<svg width="18" height="18" viewBox="0 0 18 18" fill="none" xmlns="http://www.w3.org/2000/svg">
<path d="M6.329 13.15C4.56017 13.15 3.06308 12.5379 1.83775 11.3138C0.612583 10.0894 0 8.59358 0 6.82625C0 5.05875 0.612083 3.5625 1.83625 2.3375C3.06058 1.1125 4.55642 0.5 6.32375 0.5C8.09125 0.5 9.5875 1.11258 10.8125 2.33775C12.0375 3.56308 12.65 5.06017 12.65 6.829C12.65 7.543 12.5375 8.22292 12.3125 8.86875C12.0875 9.51458 11.7792 10.0833 11.3875 10.575L16.928 16.1035C17.1093 16.2845 17.2 16.5042 17.2 16.7625C17.2 17.0208 17.1083 17.2417 16.925 17.425C16.7417 17.6083 16.5208 17.7 16.2625 17.7C16.0042 17.7 15.7843 17.6094 15.603 17.4283L10.0665 11.8875C9.57217 12.2875 9.00417 12.5979 8.3625 12.8188C7.72083 13.0396 7.043 13.15 6.329 13.15ZM6.325 11.275C7.56667 11.275 8.61875 10.8438 9.48125 9.98125C10.3438 9.11875 10.775 8.06667 10.775 6.825C10.775 5.58333 10.3438 4.53125 9.48125 3.66875C8.61875 2.80625 7.56667 2.375 6.325 2.375C5.08333 2.375 4.03125 2.80625 3.16875 3.66875C2.30625 4.53125 1.875 5.58333 1.875 6.825C1.875 8.06667 2.30625 9.11875 3.16875 9.98125C4.03125 10.8438 5.08333 11.275 6.325 11.275Z" fill="#8B1E3F"/>
</svg>
