<svg width="24" height="24" viewBox="0 0 24 24" fill="none" xmlns="http://www.w3.org/2000/svg">
<path d="M5.45012 16.9199C4.34895 15.876 3.48007 14.6119 2.90012 13.2099C2.80108 12.9792 2.75 12.7309 2.75 12.4799C2.75 12.2289 2.80108 11.9805 2.90012 11.7499C3.67032 9.87624 4.96127 8.26255 6.62012 7.09986C8.19462 5.99957 10.0799 5.4319 12.0001 5.47986C13.3817 5.44517 14.752 5.73636 16.0001 6.32986M18.5601 8.04986C19.6554 9.09269 20.5206 10.353 21.1001 11.7499C21.1992 11.9805 21.2502 12.2289 21.2502 12.4799C21.2502 12.7309 21.1992 12.9792 21.1001 13.2099C20.3299 15.0835 19.039 16.6972 17.3801 17.8599C15.8056 18.9601 13.9204 19.5278 12.0001 19.4799C10.6185 19.5145 9.24821 19.2234 8.00012 18.6299" stroke="#ADADAD" stroke-width="1.5" stroke-linecap="round" stroke-linejoin="round"/>
<path d="M8.71 13.65C8.56976 13.2759 8.4986 12.8795 8.5 12.48C8.5 11.5517 8.86875 10.6615 9.52513 10.0051C10.1815 9.34875 11.0717 8.98 12 8.98C12.4 8.978 12.796 9.05 13.17 9.19M15.29 11.31C15.43 11.684 15.502 12.08 15.5 12.48C15.5 13.4083 15.1313 14.2985 14.4749 14.9549C13.8185 15.6113 12.9283 15.98 12 15.98C11.6005 15.9814 11.2041 15.9102 10.83 15.77M3 20L19 4" stroke="#ADADAD" stroke-width="1.5" stroke-linecap="round" stroke-linejoin="round"/>
</svg>
