<svg width="393" height="852" viewBox="0 0 393 852" fill="none" xmlns="http://www.w3.org/2000/svg">
<path d="M0 162.646L32.7791 166.901C65.6164 171.156 131.175 179.667 196.675 179.667C262.175 179.667 327.616 171.156 360.279 166.901L393 162.646V0H360.279C327.616 0 262.175 0 196.675 0C131.175 0 65.6164 0 32.7791 0H0V162.646Z" fill="#FAF6DC"/>
<path d="M0 230.73L32.7791 236.404C65.6164 242.078 131.175 253.425 196.675 254.844C262.175 256.262 327.616 247.751 360.279 243.496L393 239.241V160.755L360.279 165.01C327.616 169.265 262.175 177.776 196.675 177.776C131.175 177.776 65.6164 169.265 32.7791 165.01L0 160.755V230.73Z" fill="#FAF5D9"/>
<path d="M0 264.772L32.7791 270.446C65.6164 276.12 131.175 287.467 196.675 288.886C262.175 290.304 327.616 281.794 360.279 277.538L393 273.283V237.35L360.279 241.605C327.616 245.86 262.175 254.371 196.675 252.952C131.175 251.534 65.6164 240.186 32.7791 234.513L0 228.839V264.772Z" fill="#FAF4D5"/>
<path d="M0 315.836L32.7791 322.928C65.6164 330.02 131.175 344.204 196.675 345.623C262.175 347.041 327.616 335.694 360.279 330.02L393 324.346V271.392L360.279 275.647C327.616 279.902 262.175 288.413 196.675 286.994C131.175 285.576 65.6164 274.229 32.7791 268.555L0 262.881V315.836Z" fill="#FAF3D2"/>
<path d="M0 349.878L32.7791 356.97C65.6164 364.062 131.175 378.246 196.675 379.665C262.175 381.083 327.616 369.736 360.279 364.062L393 358.388V322.455L360.279 328.129C327.616 333.802 262.175 345.15 196.675 343.731C131.175 342.313 65.6164 328.129 32.7791 321.037L0 313.945V349.878Z" fill="#FAF2CF"/>
<path d="M0 452.004L32.7791 457.678C65.6164 463.352 131.175 474.699 196.675 474.699C262.175 474.699 327.616 463.352 360.279 457.678L393 452.004V356.497L360.279 362.171C327.616 367.845 262.175 379.192 196.675 377.774C131.175 376.355 65.6164 362.171 32.7791 355.079L0 347.987V452.004Z" fill="#FAF1CC"/>
<path d="M0 622.215L32.7791 623.634C65.6164 625.052 131.175 627.889 196.675 626.471C262.175 625.052 327.616 619.378 360.279 616.542L393 613.705V450.113L360.279 455.787C327.616 461.461 262.175 472.808 196.675 472.808C131.175 472.808 65.6164 461.461 32.7791 455.787L0 450.113V622.215Z" fill="#FAEFC8"/>
<path d="M0 681.789L32.7791 684.626C65.6164 687.463 131.175 693.137 196.675 693.137C262.175 693.137 327.616 687.463 360.279 684.626L393 681.789V611.814L360.279 614.65C327.616 617.487 262.175 623.161 196.675 624.579C131.175 625.998 65.6164 623.161 32.7791 621.743L0 620.324V681.789Z" fill="#F9EEC3"/>
<path d="M0 724.342L32.7791 727.179C65.6164 730.016 131.175 735.689 196.675 735.689C262.175 735.689 327.616 730.016 360.279 727.179L393 724.342V679.898L360.279 682.735C327.616 685.572 262.175 691.245 196.675 691.245C131.175 691.245 65.6164 685.572 32.7791 682.735L0 679.898V724.342Z" fill="#F9ECBE"/>
<path d="M0 775.405L32.7791 776.824C65.6164 778.242 131.175 781.079 196.675 781.079C262.175 781.079 327.616 778.242 360.279 776.824L393 775.405V722.451L360.279 725.287C327.616 728.124 262.175 733.798 196.675 733.798C131.175 733.798 65.6164 728.124 32.7791 725.287L0 722.451V775.405Z" fill="#F9EBB9"/>
<path d="M0 817.958H32.7791C65.6164 817.958 131.175 817.958 196.675 817.958C262.175 817.958 327.616 817.958 360.279 817.958H393V773.514L360.279 774.932C327.616 776.351 262.175 779.188 196.675 779.188C131.175 779.188 65.6164 776.351 32.7791 774.932L0 773.514V817.958Z" fill="#F8E9B4"/>
<path d="M0 852H32.7791C65.6164 852 131.175 852 196.675 852C262.175 852 327.616 852 360.279 852H393V816.067H360.279C327.616 816.067 262.175 816.067 196.675 816.067C131.175 816.067 65.6164 816.067 32.7791 816.067H0V852Z" fill="#F8E8AF"/>
</svg>
